<?xml version="1.0" standalone="no"?><!DOCTYPE svg PUBLIC "-//W3C//DTD SVG 1.1//EN" "http://www.w3.org/Graphics/SVG/1.1/DTD/svg11.dtd"><svg t="1526196712552" class="icon" style="" viewBox="0 0 1024 1024" version="1.1" xmlns="http://www.w3.org/2000/svg" p-id="5933" xmlns:xlink="http://www.w3.org/1999/xlink" width="16" height="16"><defs><style type="text/css"></style></defs><path d="M759.016907 33.651424 263.814478 33.651424c-85.614913 0-155.262156 69.647243-155.262156 155.262156l0 643.75579c0 85.614913 69.647243 155.272389 155.262156 155.272389l459.948507 0 190.516078-217.740116L914.279063 188.913581C914.279063 103.298668 844.63182 33.651424 759.016907 33.651424zM171.480536 832.66937 171.480536 188.913581c0-50.9146 41.419342-92.333942 92.333942-92.333942l495.202429 0c50.9146 0 92.333942 41.419342 92.333942 92.333942l0 549.992289-171.587983-1.110287 0 187.217962L263.814478 925.013545C212.900901 925.013545 171.480536 883.58397 171.480536 832.66937zM312.312028 331.802942l396.159692 0c17.380856 0 31.464619-14.08274 31.464619-31.464619s-14.08274-31.464619-31.464619-31.464619L312.312028 268.873704c-17.380856 0-31.464619 14.08274-31.464619 31.464619S294.930149 331.802942 312.312028 331.802942zM312.312028 536.064069l396.159692 0c17.380856 0 31.464619-14.08274 31.464619-31.464619 0-17.380856-14.08274-31.464619-31.464619-31.464619L312.312028 473.134831c-17.380856 0-31.464619 14.08274-31.464619 31.464619C280.847409 521.981329 294.930149 536.064069 312.312028 536.064069zM473.248418 677.407214 312.312028 677.407214c-17.380856 0-31.464619 14.08274-31.464619 31.464619s14.08274 31.464619 31.464619 31.464619l160.936389 0c17.380856 0 31.464619-14.08274 31.464619-31.464619S490.629273 677.407214 473.248418 677.407214z" p-id="5934" fill="#e6e6e6"></path></svg>