<?xml version="1.0" standalone="no"?><!DOCTYPE svg PUBLIC "-//W3C//DTD SVG 1.1//EN" "http://www.w3.org/Graphics/SVG/1.1/DTD/svg11.dtd"><svg t="1526138919511" class="icon" style="" viewBox="0 0 1024 1024" version="1.1" xmlns="http://www.w3.org/2000/svg" p-id="9341" xmlns:xlink="http://www.w3.org/1999/xlink" width="16" height="16"><defs><style type="text/css"></style></defs><path d="M512 117.333333c98.133333 0 179.2 81.066667 179.2 179.2 0 98.133333-81.066667 179.2-179.2 179.2s-179.2-81.066667-179.2-179.2c0-98.133333 81.066667-179.2 179.2-179.2M608 618.666667c64 0 125.866667 25.6 170.666667 72.533333 46.933333 46.933333 74.666667 110.933333 72.533333 181.333333v14.933334c-32 21.333333-174.933333 21.333333-245.333333 21.333333h-192c-81.066667 0-215.466667 0-245.333334-19.2V874.666667c2.133333-142.933333 113.066667-256 247.466667-256h192M512 64c-128 0-232.533333 104.533333-232.533333 232.533333S384 529.066667 512 529.066667s232.533333-104.533333 232.533333-232.533334S640 64 512 64z m96 501.333333h-192c-164.266667 0-298.666667 136.533333-298.666667 305.066667v19.2c0 68.266667 132.266667 68.266667 298.666667 68.266667h192c164.266667 0 298.666667-2.133333 298.666667-68.266667v-19.2c0-168.533333-134.4-305.066667-298.666667-305.066667z" fill="#dbdbdb" p-id="9342"></path></svg>